# xmcd
#
# Track frame offsets:
#	150
#	23436
#	42805
#	66115
#	88449
#	108022
#	129960
#	153931
#	178434
#	206552
#	229897
#
# Disc length: 3262 seconds
#
# Revision: 2
# Processed by: cddbd v1.5.2PL0 Copyright (c) Steve Scherf et al.
# Submitted via: EZCDAudioConverter 8.0.2.1
#
DISCID=8b0cbc0b
DTITLE=Quang Lê - Tương Tư Nàng Ca Sĩ
DYEAR=2009
DGENRE=Miscellaneous
TTITLE0=Quang Lê - Tương Tư Nàng Ca Sĩ
TTITLE1=Quang Lê - Giã từ
TTITLE2=Quang Lê - Hãy quên anh
TTITLE3=Quang Lê - Em hãy về đi
TTITLE4=Quang Lê - Ngại ngùng
TTITLE5=Quang Lê - Nửa vầng trăng
TTITLE6=Quang Lê, Mai Thiên Vân - Các anh về
TTITLE7=Quang Lê - Quán nửa khuya
TTITLE8=Quang Lê - Buồn chi em ơi
TTITLE9=Quang Lê - Neo đậu bến quê
TTITLE10=Quang Lê - Hoa cài mái tóc
EXTD=
EXTT0=
EXTT1=
EXTT2=
EXTT3=
EXTT4=
EXTT5=
EXTT6=
EXTT7=
EXTT8=
EXTT9=
EXTT10=
PLAYORDER=
